<?xml version="1.0" encoding="UTF-8" standalone="no"?>
<!DOCTYPE svg PUBLIC "-//W3C//DTD SVG 1.1//EN"
 "http://www.w3.org/Graphics/SVG/1.1/DTD/svg11.dtd">
<!-- Generated by graphviz version 2.46.0 (20210118.1747)
 -->
<!-- Pages: 1 -->
<svg width="250pt" height="102pt"
 viewBox="0.00 0.00 250.00 101.60" xmlns="http://www.w3.org/2000/svg" xmlns:xlink="http://www.w3.org/1999/xlink">
<g id="graph0" class="graph" transform="scale(1 1) rotate(0) translate(4 97.6)">
<polygon fill="white" stroke="transparent" points="-4,4 -4,-97.6 246,-97.6 246,4 -4,4"/>
<!-- X -->
<g id="node1" class="node">
<title>X</title>
<polygon fill="lightgray" stroke="black" points="23,-93.6 0,-93.6 0,-75.6 23,-75.6 23,-93.6"/>
<text text-anchor="middle" x="11.5" y="-82.4" font-family="Times New Roman,serif" font-size="9.00">X</text>
</g>
<!-- uX -->
<g id="node7" class="node">
<title>uX</title>
<ellipse fill="lightblue" stroke="black" cx="59.5" cy="-19.8" rx="19.6" ry="19.6"/>
<text text-anchor="middle" x="59.5" y="-17.6" font-family="Times New Roman,serif" font-size="9.00">uX</text>
</g>
<!-- X&#45;&gt;uX -->
<g id="edge8" class="edge">
<title>X&#45;&gt;uX</title>
<path fill="none" stroke="green" stroke-width="0.61" d="M17.78,-75.39C23.85,-67.44 33.35,-55.01 41.75,-44.02"/>
<polygon fill="green" stroke="green" stroke-width="0.61" points="44.59,-46.07 47.88,-36 39.03,-41.82 44.59,-46.07"/>
</g>
<!-- Y -->
<g id="node2" class="node">
<title>Y</title>
<polygon fill="lightgray" stroke="black" points="152,-93.6 129,-93.6 129,-75.6 152,-75.6 152,-93.6"/>
<text text-anchor="middle" x="140.5" y="-82.4" font-family="Times New Roman,serif" font-size="9.00">Y</text>
</g>
<!-- Y&#45;&gt;uX -->
<g id="edge4" class="edge">
<title>Y&#45;&gt;uX</title>
<path fill="none" stroke="green" stroke-width="0.12" d="M129.91,-75.39C118.04,-66.19 98.43,-50.98 82.92,-38.95"/>
<polygon fill="green" stroke="green" stroke-width="0.12" points="84.84,-36.02 74.79,-32.66 80.55,-41.55 84.84,-36.02"/>
</g>
<!-- uY -->
<g id="node8" class="node">
<title>uY</title>
<ellipse fill="lightblue" stroke="black" cx="183.5" cy="-19.8" rx="19.18" ry="19.18"/>
<text text-anchor="middle" x="183.5" y="-17.6" font-family="Times New Roman,serif" font-size="9.00">uY</text>
</g>
<!-- Y&#45;&gt;uY -->
<g id="edge3" class="edge">
<title>Y&#45;&gt;uY</title>
<path fill="none" stroke="green" stroke-width="0.26" d="M146.12,-75.39C151.51,-67.52 159.91,-55.26 167.38,-44.35"/>
<polygon fill="green" stroke="green" stroke-width="0.26" points="170.33,-46.22 173.09,-36 164.56,-42.27 170.33,-46.22"/>
</g>
<!-- Z -->
<g id="node3" class="node">
<title>Z</title>
<polygon fill="lightgray" stroke="black" points="111,-93.6 88,-93.6 88,-75.6 111,-75.6 111,-93.6"/>
<text text-anchor="middle" x="99.5" y="-82.4" font-family="Times New Roman,serif" font-size="9.00">Z</text>
</g>
<!-- Z&#45;&gt;uX -->
<g id="edge2" class="edge">
<title>Z&#45;&gt;uX</title>
<path fill="none" stroke="green" stroke-width="0.27" d="M94.27,-75.39C89.44,-67.8 82.01,-56.14 75.26,-45.54"/>
<polygon fill="green" stroke="green" stroke-width="0.27" points="78.14,-43.55 69.82,-37 72.24,-47.31 78.14,-43.55"/>
</g>
<!-- uZ -->
<g id="node9" class="node">
<title>uZ</title>
<ellipse fill="lightblue" stroke="black" cx="123.5" cy="-19.8" rx="19.18" ry="19.18"/>
<text text-anchor="middle" x="123.5" y="-17.6" font-family="Times New Roman,serif" font-size="9.00">uZ</text>
</g>
<!-- Z&#45;&gt;uZ -->
<g id="edge7" class="edge">
<title>Z&#45;&gt;uZ</title>
<path fill="none" stroke="green" stroke-width="0.34" d="M102.64,-75.39C105.39,-68.18 109.55,-57.3 113.44,-47.13"/>
<polygon fill="green" stroke="green" stroke-width="0.34" points="116.72,-48.35 117.02,-37.76 110.18,-45.85 116.72,-48.35"/>
</g>
<!-- vX -->
<g id="node4" class="node">
<title>vX</title>
<polygon fill="lightgray" stroke="black" points="69.5,-93.6 41.5,-93.6 41.5,-75.6 69.5,-75.6 69.5,-93.6"/>
<text text-anchor="middle" x="55.5" y="-82.4" font-family="Times New Roman,serif" font-size="9.00">vX</text>
</g>
<!-- vX&#45;&gt;uX -->
<g id="edge5" class="edge">
<title>vX&#45;&gt;uX</title>
<path fill="none" stroke="red" stroke-width="0.55" d="M56.02,-75.39C56.44,-68.82 57.05,-59.19 57.65,-49.84"/>
<polygon fill="red" stroke="red" stroke-width="0.55" points="61.16,-49.78 58.3,-39.58 54.18,-49.33 61.16,-49.78"/>
</g>
<!-- vY -->
<g id="node5" class="node">
<title>vY</title>
<polygon fill="lightgray" stroke="black" points="242,-93.6 215,-93.6 215,-75.6 242,-75.6 242,-93.6"/>
<text text-anchor="middle" x="228.5" y="-82.4" font-family="Times New Roman,serif" font-size="9.00">vY</text>
</g>
<!-- vY&#45;&gt;uY -->
<g id="edge9" class="edge">
<title>vY&#45;&gt;uY</title>
<path fill="none" stroke="red" stroke-width="0.5" d="M222.62,-75.39C216.98,-67.52 208.19,-55.26 200.37,-44.35"/>
<polygon fill="red" stroke="red" stroke-width="0.5" points="203.06,-42.09 194.39,-36 197.37,-46.16 203.06,-42.09"/>
</g>
<!-- vZ -->
<g id="node6" class="node">
<title>vZ</title>
<polygon fill="lightgray" stroke="black" points="197,-93.6 170,-93.6 170,-75.6 197,-75.6 197,-93.6"/>
<text text-anchor="middle" x="183.5" y="-82.4" font-family="Times New Roman,serif" font-size="9.00">vZ</text>
</g>
<!-- vZ&#45;&gt;uY -->
<g id="edge1" class="edge">
<title>vZ&#45;&gt;uY</title>
<path fill="none" stroke="green" stroke-width="0.14" d="M183.5,-75.39C183.5,-68.65 183.5,-58.69 183.5,-49.12"/>
<polygon fill="green" stroke="green" stroke-width="0.14" points="187,-49.05 183.5,-39.05 180,-49.05 187,-49.05"/>
</g>
<!-- vZ&#45;&gt;uZ -->
<g id="edge6" class="edge">
<title>vZ&#45;&gt;uZ</title>
<path fill="none" stroke="red" stroke-width="0.53" d="M175.66,-75.39C167.6,-66.96 154.74,-53.5 143.8,-42.05"/>
<polygon fill="red" stroke="red" stroke-width="0.53" points="146.06,-39.34 136.62,-34.53 141,-44.18 146.06,-39.34"/>
</g>
</g>
</svg>
