<?xml version="1.0" encoding="UTF-8" standalone="no"?>
<!DOCTYPE svg PUBLIC "-//W3C//DTD SVG 1.1//EN"
 "http://www.w3.org/Graphics/SVG/1.1/DTD/svg11.dtd">
<!-- Generated by graphviz version 2.46.0 (20210118.1747)
 -->
<!-- Pages: 1 -->
<svg width="250pt" height="102pt"
 viewBox="0.00 0.00 250.00 101.60" xmlns="http://www.w3.org/2000/svg" xmlns:xlink="http://www.w3.org/1999/xlink">
<g id="graph0" class="graph" transform="scale(1 1) rotate(0) translate(4 97.6)">
<polygon fill="white" stroke="transparent" points="-4,4 -4,-97.6 246,-97.6 246,4 -4,4"/>
<!-- X -->
<g id="node1" class="node">
<title>X</title>
<polygon fill="lightgray" stroke="black" points="23,-93.6 0,-93.6 0,-75.6 23,-75.6 23,-93.6"/>
<text text-anchor="middle" x="11.5" y="-82.4" font-family="Times New Roman,serif" font-size="9.00">X</text>
</g>
<!-- uX -->
<g id="node7" class="node">
<title>uX</title>
<ellipse fill="lightblue" stroke="black" cx="52.5" cy="-19.8" rx="19.6" ry="19.6"/>
<text text-anchor="middle" x="52.5" y="-17.6" font-family="Times New Roman,serif" font-size="9.00">uX</text>
</g>
<!-- X&#45;&gt;uX -->
<g id="edge4" class="edge">
<title>X&#45;&gt;uX</title>
<path fill="none" stroke="green" stroke-width="0.54" d="M16.86,-75.39C21.85,-67.75 29.53,-55.98 36.49,-45.32"/>
<polygon fill="green" stroke="green" stroke-width="0.54" points="39.55,-47.03 42.09,-36.74 33.69,-43.2 39.55,-47.03"/>
</g>
<!-- Y -->
<g id="node2" class="node">
<title>Y</title>
<polygon fill="lightgray" stroke="black" points="64,-93.6 41,-93.6 41,-75.6 64,-75.6 64,-93.6"/>
<text text-anchor="middle" x="52.5" y="-82.4" font-family="Times New Roman,serif" font-size="9.00">Y</text>
</g>
<!-- Y&#45;&gt;uX -->
<g id="edge1" class="edge">
<title>Y&#45;&gt;uX</title>
<path fill="none" stroke="red" stroke-width="0.54" d="M52.5,-75.39C52.5,-68.87 52.5,-59.33 52.5,-50.04"/>
<polygon fill="red" stroke="red" stroke-width="0.54" points="56,-49.84 52.5,-39.84 49,-49.84 56,-49.84"/>
</g>
<!-- uY -->
<g id="node8" class="node">
<title>uY</title>
<ellipse fill="lightblue" stroke="black" cx="109.5" cy="-19.8" rx="19.18" ry="19.18"/>
<text text-anchor="middle" x="109.5" y="-17.6" font-family="Times New Roman,serif" font-size="9.00">uY</text>
</g>
<!-- Y&#45;&gt;uY -->
<g id="edge7" class="edge">
<title>Y&#45;&gt;uY</title>
<path fill="none" stroke="green" stroke-width="0.37" d="M59.95,-75.39C67.6,-66.96 79.82,-53.5 90.21,-42.05"/>
<polygon fill="green" stroke="green" stroke-width="0.37" points="92.91,-44.29 97.04,-34.53 87.72,-39.58 92.91,-44.29"/>
</g>
<!-- Z -->
<g id="node3" class="node">
<title>Z</title>
<polygon fill="lightgray" stroke="black" points="197,-93.6 174,-93.6 174,-75.6 197,-75.6 197,-93.6"/>
<text text-anchor="middle" x="185.5" y="-82.4" font-family="Times New Roman,serif" font-size="9.00">Z</text>
</g>
<!-- uZ -->
<g id="node9" class="node">
<title>uZ</title>
<ellipse fill="lightblue" stroke="black" cx="206.5" cy="-19.8" rx="19.18" ry="19.18"/>
<text text-anchor="middle" x="206.5" y="-17.6" font-family="Times New Roman,serif" font-size="9.00">uZ</text>
</g>
<!-- Z&#45;&gt;uZ -->
<g id="edge5" class="edge">
<title>Z&#45;&gt;uZ</title>
<path fill="none" stroke="green" stroke-width="0.28" d="M188.25,-75.39C190.61,-68.31 194.17,-57.67 197.52,-47.66"/>
<polygon fill="green" stroke="green" stroke-width="0.28" points="200.89,-48.61 200.74,-38.02 194.25,-46.39 200.89,-48.61"/>
</g>
<!-- vX -->
<g id="node4" class="node">
<title>vX</title>
<polygon fill="lightgray" stroke="black" points="110.5,-93.6 82.5,-93.6 82.5,-75.6 110.5,-75.6 110.5,-93.6"/>
<text text-anchor="middle" x="96.5" y="-82.4" font-family="Times New Roman,serif" font-size="9.00">vX</text>
</g>
<!-- vX&#45;&gt;uX -->
<g id="edge6" class="edge">
<title>vX&#45;&gt;uX</title>
<path fill="none" stroke="red" stroke-width="0.39" d="M90.75,-75.39C85.31,-67.62 76.87,-55.58 69.3,-44.78"/>
<polygon fill="red" stroke="red" stroke-width="0.39" points="72.1,-42.68 63.5,-36.49 66.37,-46.69 72.1,-42.68"/>
</g>
<!-- vX&#45;&gt;uY -->
<g id="edge3" class="edge">
<title>vX&#45;&gt;uY</title>
<path fill="none" stroke="red" stroke-width="0.32" d="M98.2,-75.39C99.62,-68.53 101.73,-58.33 103.74,-48.6"/>
<polygon fill="red" stroke="red" stroke-width="0.32" points="107.18,-49.29 105.78,-38.79 100.32,-47.87 107.18,-49.29"/>
</g>
<!-- vY -->
<g id="node5" class="node">
<title>vY</title>
<polygon fill="lightgray" stroke="black" points="156,-93.6 129,-93.6 129,-75.6 156,-75.6 156,-93.6"/>
<text text-anchor="middle" x="142.5" y="-82.4" font-family="Times New Roman,serif" font-size="9.00">vY</text>
</g>
<!-- vY&#45;&gt;uX -->
<g id="edge2" class="edge">
<title>vY&#45;&gt;uX</title>
<path fill="none" stroke="green" stroke-width="0.27" d="M130.73,-75.39C117.18,-65.93 94.54,-50.14 77.1,-37.96"/>
<polygon fill="green" stroke="green" stroke-width="0.27" points="78.73,-34.83 68.52,-31.98 74.72,-40.57 78.73,-34.83"/>
</g>
<!-- vY&#45;&gt;uY -->
<g id="edge8" class="edge">
<title>vY&#45;&gt;uY</title>
<path fill="none" stroke="red" stroke-width="0.52" d="M138.19,-75.39C134.24,-67.88 128.19,-56.37 122.67,-45.86"/>
<polygon fill="red" stroke="red" stroke-width="0.52" points="125.76,-44.22 118.01,-37 119.57,-47.48 125.76,-44.22"/>
</g>
<!-- vZ -->
<g id="node6" class="node">
<title>vZ</title>
<polygon fill="lightgray" stroke="black" points="242,-93.6 215,-93.6 215,-75.6 242,-75.6 242,-93.6"/>
<text text-anchor="middle" x="228.5" y="-82.4" font-family="Times New Roman,serif" font-size="9.00">vZ</text>
</g>
<!-- vZ&#45;&gt;uZ -->
<g id="edge9" class="edge">
<title>vZ&#45;&gt;uZ</title>
<path fill="none" stroke="red" stroke-width="0.54" d="M225.62,-75.39C223.14,-68.31 219.42,-57.67 215.91,-47.66"/>
<polygon fill="red" stroke="red" stroke-width="0.54" points="219.14,-46.3 212.53,-38.02 212.53,-48.61 219.14,-46.3"/>
</g>
</g>
</svg>
