<?xml version="1.0" encoding="UTF-8" standalone="no"?>
<!DOCTYPE svg PUBLIC "-//W3C//DTD SVG 1.1//EN"
 "http://www.w3.org/Graphics/SVG/1.1/DTD/svg11.dtd">
<!-- Generated by graphviz version 2.46.0 (20210118.1747)
 -->
<!-- Pages: 1 -->
<svg width="353pt" height="186pt"
 viewBox="0.00 0.00 352.73 185.68" xmlns="http://www.w3.org/2000/svg" xmlns:xlink="http://www.w3.org/1999/xlink">
<g id="graph0" class="graph" transform="scale(1 1) rotate(0) translate(4 181.68)">
<polygon fill="white" stroke="transparent" points="-4,4 -4,-181.68 348.73,-181.68 348.73,4 -4,4"/>
<!-- X -->
<g id="node1" class="node">
<title>X</title>
<polygon fill="lightgray" stroke="black" points="260.35,-177.68 237.35,-177.68 237.35,-159.68 260.35,-159.68 260.35,-177.68"/>
<text text-anchor="middle" x="248.85" y="-166.48" font-family="Times New Roman,serif" font-size="9.00">X</text>
</g>
<!-- uX -->
<g id="node7" class="node">
<title>uX</title>
<ellipse fill="lightblue" stroke="black" cx="239.85" cy="-98.93" rx="19.6" ry="19.6"/>
<text text-anchor="middle" x="239.85" y="-96.73" font-family="Times New Roman,serif" font-size="9.00">uX</text>
</g>
<!-- X&#45;&gt;uX -->
<g id="edge2" class="edge">
<title>X&#45;&gt;uX</title>
<path fill="none" stroke="green" stroke-width="0.15" d="M247.79,-159.64C246.77,-151.97 245.17,-139.94 243.67,-128.68"/>
<polygon fill="green" stroke="green" stroke-width="0.15" points="247.13,-128.16 242.35,-118.7 240.19,-129.08 247.13,-128.16"/>
</g>
<!-- 3053 -->
<g id="node11" class="node">
<title>3053</title>
<ellipse fill="white" stroke="black" cx="302.85" cy="-98.93" rx="25" ry="25"/>
<text text-anchor="middle" x="302.85" y="-96.73" font-family="Times New Roman,serif" font-size="9.00">3053</text>
</g>
<!-- X&#45;&gt;3053 -->
<g id="edge13" class="edge">
<title>X&#45;&gt;3053</title>
<path fill="none" stroke="red" stroke-width="0.2" d="M255.26,-159.64C261.75,-151.5 272.15,-138.45 281.58,-126.62"/>
<polygon fill="red" stroke="red" stroke-width="0.2" points="284.4,-128.71 287.89,-118.7 278.92,-124.34 284.4,-128.71"/>
</g>
<!-- Y -->
<g id="node2" class="node">
<title>Y</title>
<polygon fill="lightgray" stroke="black" points="53.35,-177.68 30.35,-177.68 30.35,-159.68 53.35,-159.68 53.35,-177.68"/>
<text text-anchor="middle" x="41.85" y="-166.48" font-family="Times New Roman,serif" font-size="9.00">Y</text>
</g>
<!-- uY -->
<g id="node8" class="node">
<title>uY</title>
<ellipse fill="lightblue" stroke="black" cx="103.85" cy="-98.93" rx="19.18" ry="19.18"/>
<text text-anchor="middle" x="103.85" y="-96.73" font-family="Times New Roman,serif" font-size="9.00">uY</text>
</g>
<!-- Y&#45;&gt;uY -->
<g id="edge3" class="edge">
<title>Y&#45;&gt;uY</title>
<path fill="none" stroke="green" stroke-width="0.22" d="M49.21,-159.64C57.82,-150.24 72.41,-134.29 84.35,-121.24"/>
<polygon fill="green" stroke="green" stroke-width="0.22" points="87.2,-123.32 91.37,-113.58 82.03,-118.59 87.2,-123.32"/>
</g>
<!-- uZ -->
<g id="node9" class="node">
<title>uZ</title>
<ellipse fill="lightblue" stroke="black" cx="170.85" cy="-19.09" rx="19.18" ry="19.18"/>
<text text-anchor="middle" x="170.85" y="-16.89" font-family="Times New Roman,serif" font-size="9.00">uZ</text>
</g>
<!-- Y&#45;&gt;uZ -->
<g id="edge6" class="edge">
<title>Y&#45;&gt;uZ</title>
<path fill="none" stroke="red" stroke-width="0.21" stroke-dasharray="1,5" d="M32.89,-159.62C24.58,-151.49 12.78,-138.12 7.85,-123.68 0.75,-102.86 -5.02,-92.02 7.85,-74.18 38.35,-31.94 103.16,-22.16 141.23,-20.21"/>
<polygon fill="red" stroke="red" stroke-width="0.21" points="141.8,-23.69 151.67,-19.84 141.55,-16.7 141.8,-23.69"/>
</g>
<!-- 3521 -->
<g id="node10" class="node">
<title>3521</title>
<ellipse fill="white" stroke="black" cx="41.85" cy="-98.93" rx="25" ry="25"/>
<text text-anchor="middle" x="41.85" y="-96.73" font-family="Times New Roman,serif" font-size="9.00">3521</text>
</g>
<!-- Y&#45;&gt;3521 -->
<g id="edge14" class="edge">
<title>Y&#45;&gt;3521</title>
<path fill="none" stroke="green" stroke-width="0.3" d="M41.85,-159.64C41.85,-153.21 41.85,-143.71 41.85,-134.17"/>
<polygon fill="green" stroke="green" stroke-width="0.3" points="45.35,-133.95 41.85,-123.95 38.35,-133.95 45.35,-133.95"/>
</g>
<!-- Z -->
<g id="node3" class="node">
<title>Z</title>
<polygon fill="lightgray" stroke="black" points="202.35,-107.93 179.35,-107.93 179.35,-89.93 202.35,-89.93 202.35,-107.93"/>
<text text-anchor="middle" x="190.85" y="-96.73" font-family="Times New Roman,serif" font-size="9.00">Z</text>
</g>
<!-- Z&#45;&gt;uZ -->
<g id="edge9" class="edge">
<title>Z&#45;&gt;uZ</title>
<path fill="none" stroke="green" stroke-width="0.2" d="M188.79,-89.9C186.24,-79.99 181.78,-62.62 177.94,-47.69"/>
<polygon fill="green" stroke="green" stroke-width="0.2" points="181.3,-46.68 175.42,-37.86 174.52,-48.42 181.3,-46.68"/>
</g>
<!-- vX -->
<g id="node4" class="node">
<title>vX</title>
<polygon fill="lightgray" stroke="black" points="316.85,-177.68 288.85,-177.68 288.85,-159.68 316.85,-159.68 316.85,-177.68"/>
<text text-anchor="middle" x="302.85" y="-166.48" font-family="Times New Roman,serif" font-size="9.00">vX</text>
</g>
<!-- vX&#45;&gt;uX -->
<g id="edge8" class="edge">
<title>vX&#45;&gt;uX</title>
<path fill="none" stroke="red" stroke-width="0.41" d="M295.38,-159.64C286.74,-150.36 272.17,-134.69 260.12,-121.73"/>
<polygon fill="red" stroke="red" stroke-width="0.41" points="262.39,-119.03 253.02,-114.09 257.27,-123.8 262.39,-119.03"/>
</g>
<!-- vX&#45;&gt;uZ -->
<g id="edge4" class="edge">
<title>vX&#45;&gt;uZ</title>
<path fill="none" stroke="green" stroke-width="0.11" stroke-dasharray="1,5" d="M311.82,-159.62C320.13,-151.49 331.93,-138.12 336.85,-123.68 343.96,-102.86 349.78,-91.99 336.85,-74.18 305.52,-31.02 238.84,-21.64 200.2,-19.99"/>
<polygon fill="green" stroke="green" stroke-width="0.11" points="200.19,-16.49 190.1,-19.71 200,-23.49 200.19,-16.49"/>
</g>
<!-- vX&#45;&gt;3053 -->
<g id="edge11" class="edge">
<title>vX&#45;&gt;3053</title>
<path fill="none" stroke="green" stroke-width="0.22" d="M302.85,-159.64C302.85,-153.21 302.85,-143.71 302.85,-134.17"/>
<polygon fill="green" stroke="green" stroke-width="0.22" points="306.35,-133.95 302.85,-123.95 299.35,-133.95 306.35,-133.95"/>
</g>
<!-- vY -->
<g id="node5" class="node">
<title>vY</title>
<polygon fill="lightgray" stroke="black" points="118.35,-177.68 91.35,-177.68 91.35,-159.68 118.35,-159.68 118.35,-177.68"/>
<text text-anchor="middle" x="104.85" y="-166.48" font-family="Times New Roman,serif" font-size="9.00">vY</text>
</g>
<!-- vY&#45;&gt;uX -->
<g id="edge10" class="edge">
<title>vY&#45;&gt;uX</title>
<path fill="none" stroke="green" stroke-width="0.25" d="M118.51,-163.45C139.29,-156.7 179.75,-142.32 210.85,-123.68 213.1,-122.33 215.36,-120.83 217.57,-119.24"/>
<polygon fill="green" stroke="green" stroke-width="0.25" points="219.97,-121.8 225.72,-112.9 215.68,-116.27 219.97,-121.8"/>
</g>
<!-- vY&#45;&gt;uY -->
<g id="edge7" class="edge">
<title>vY&#45;&gt;uY</title>
<path fill="none" stroke="red" stroke-width="0.49" d="M104.73,-159.64C104.62,-151.86 104.44,-139.6 104.27,-128.21"/>
<polygon fill="red" stroke="red" stroke-width="0.49" points="107.77,-128.09 104.12,-118.14 100.77,-128.19 107.77,-128.09"/>
</g>
<!-- vZ -->
<g id="node6" class="node">
<title>vZ</title>
<polygon fill="lightgray" stroke="black" points="191.35,-177.68 164.35,-177.68 164.35,-159.68 191.35,-159.68 191.35,-177.68"/>
<text text-anchor="middle" x="177.85" y="-166.48" font-family="Times New Roman,serif" font-size="9.00">vZ</text>
</g>
<!-- vZ&#45;&gt;uX -->
<g id="edge1" class="edge">
<title>vZ&#45;&gt;uX</title>
<path fill="none" stroke="green" stroke-width="0.13" stroke-dasharray="1,5" d="M185.21,-159.64C193.71,-150.36 208.05,-134.69 219.91,-121.73"/>
<polygon fill="green" stroke="green" stroke-width="0.13" points="222.72,-123.83 226.89,-114.09 217.56,-119.11 222.72,-123.83"/>
</g>
<!-- vZ&#45;&gt;uZ -->
<g id="edge5" class="edge">
<title>vZ&#45;&gt;uZ</title>
<path fill="none" stroke="red" stroke-width="0.6" d="M175.94,-159.63C173.96,-150.85 171,-136.36 169.85,-123.68 167.57,-98.36 168.11,-69.42 169.06,-48.57"/>
<polygon fill="red" stroke="red" stroke-width="0.6" points="172.56,-48.64 169.58,-38.47 165.57,-48.28 172.56,-48.64"/>
</g>
<!-- 3521&#45;&gt;uZ -->
<g id="edge15" class="edge">
<title>3521&#45;&gt;uZ</title>
<path fill="none" stroke="red" stroke-width="0.35" d="M61.78,-83.56C66.35,-80.39 71.23,-77.11 75.85,-74.18 98.88,-59.63 125.94,-44.39 145.28,-33.82"/>
<polygon fill="red" stroke="red" stroke-width="0.35" points="146.99,-36.87 154.11,-29.02 143.65,-30.72 146.99,-36.87"/>
</g>
<!-- 3053&#45;&gt;uZ -->
<g id="edge12" class="edge">
<title>3053&#45;&gt;uZ</title>
<path fill="none" stroke="green" stroke-width="0.12" d="M282.95,-83.51C278.38,-80.35 273.5,-77.08 268.85,-74.18 244.9,-59.26 216.58,-43.86 196.56,-33.33"/>
<polygon fill="green" stroke="green" stroke-width="0.12" points="197.94,-30.1 187.46,-28.57 194.7,-36.3 197.94,-30.1"/>
</g>
</g>
</svg>
