<?xml version="1.0" encoding="UTF-8" standalone="no"?>
<!DOCTYPE svg PUBLIC "-//W3C//DTD SVG 1.1//EN"
 "http://www.w3.org/Graphics/SVG/1.1/DTD/svg11.dtd">
<!-- Generated by graphviz version 2.46.0 (20210118.1747)
 -->
<!-- Pages: 1 -->
<svg width="343pt" height="357pt"
 viewBox="0.00 0.00 342.50 356.68" xmlns="http://www.w3.org/2000/svg" xmlns:xlink="http://www.w3.org/1999/xlink">
<g id="graph0" class="graph" transform="scale(1 1) rotate(0) translate(4 352.68)">
<polygon fill="white" stroke="transparent" points="-4,4 -4,-352.68 338.5,-352.68 338.5,4 -4,4"/>
<!-- X -->
<g id="node1" class="node">
<title>X</title>
<polygon fill="lightgray" stroke="black" points="174.5,-278.93 151.5,-278.93 151.5,-260.93 174.5,-260.93 174.5,-278.93"/>
<text text-anchor="middle" x="163" y="-267.73" font-family="Times New Roman,serif" font-size="9.00">X</text>
</g>
<!-- uX -->
<g id="node7" class="node">
<title>uX</title>
<ellipse fill="lightblue" stroke="black" cx="61" cy="-184.43" rx="19.6" ry="19.6"/>
<text text-anchor="middle" x="61" y="-182.23" font-family="Times New Roman,serif" font-size="9.00">uX</text>
</g>
<!-- X&#45;&gt;uX -->
<g id="edge9" class="edge">
<title>X&#45;&gt;uX</title>
<path fill="none" stroke="green" stroke-width="0.17" d="M156.79,-260.58C153.05,-255.82 148.05,-249.88 143,-245.18 133.14,-235.98 105.73,-216.41 85.3,-202.17"/>
<polygon fill="green" stroke="green" stroke-width="0.17" points="87.26,-199.26 77.05,-196.43 83.26,-205.01 87.26,-199.26"/>
</g>
<!-- uZ -->
<g id="node9" class="node">
<title>uZ</title>
<ellipse fill="lightblue" stroke="black" cx="224" cy="-19.09" rx="19.18" ry="19.18"/>
<text text-anchor="middle" x="224" y="-16.89" font-family="Times New Roman,serif" font-size="9.00">uZ</text>
</g>
<!-- X&#45;&gt;uZ -->
<g id="edge1" class="edge">
<title>X&#45;&gt;uZ</title>
<path fill="none" stroke="green" stroke-width="0.23" stroke-dasharray="1,5" d="M156.6,-260.61C148.54,-249.57 135.15,-229.14 130,-209.18 124.51,-187.88 124.06,-180.86 130,-159.68 143.37,-111.96 180.3,-66.19 203.69,-40.74"/>
<polygon fill="green" stroke="green" stroke-width="0.23" points="206.47,-42.9 210.76,-33.21 201.36,-38.1 206.47,-42.9"/>
</g>
<!-- 708 -->
<g id="node10" class="node">
<title>708</title>
<ellipse fill="white" stroke="black" cx="160" cy="-184.43" rx="21.43" ry="21.43"/>
<text text-anchor="middle" x="160" y="-182.23" font-family="Times New Roman,serif" font-size="9.00">708</text>
</g>
<!-- X&#45;&gt;708 -->
<g id="edge8" class="edge">
<title>X&#45;&gt;708</title>
<path fill="none" stroke="red" stroke-width="0.17" d="M162.71,-260.92C162.34,-250.61 161.68,-232.09 161.1,-215.98"/>
<polygon fill="red" stroke="red" stroke-width="0.17" points="164.59,-215.71 160.73,-205.85 157.59,-215.96 164.59,-215.71"/>
</g>
<!-- 1477 -->
<g id="node11" class="node">
<title>1477</title>
<ellipse fill="white" stroke="black" cx="224" cy="-184.43" rx="25" ry="25"/>
<text text-anchor="middle" x="224" y="-182.23" font-family="Times New Roman,serif" font-size="9.00">1477</text>
</g>
<!-- X&#45;&gt;1477 -->
<g id="edge13" class="edge">
<title>X&#45;&gt;1477</title>
<path fill="none" stroke="green" stroke-width="0.35" d="M168.85,-260.92C176.82,-250.01 191.51,-229.9 203.72,-213.18"/>
<polygon fill="green" stroke="green" stroke-width="0.35" points="206.76,-214.96 209.84,-204.82 201.11,-210.83 206.76,-214.96"/>
</g>
<!-- 1022 -->
<g id="node13" class="node">
<title>1022</title>
<ellipse fill="white" stroke="black" cx="291" cy="-184.43" rx="25" ry="25"/>
<text text-anchor="middle" x="291" y="-182.23" font-family="Times New Roman,serif" font-size="9.00">1022</text>
</g>
<!-- X&#45;&gt;1022 -->
<g id="edge10" class="edge">
<title>X&#45;&gt;1022</title>
<path fill="none" stroke="red" stroke-width="0.35" d="M168.94,-260.7C172.81,-255.75 178.22,-249.57 184,-245.18 213.12,-223.05 226.6,-227.93 258,-209.18 259.68,-208.17 261.39,-207.11 263.09,-206.01"/>
<polygon fill="red" stroke="red" stroke-width="0.35" points="265.17,-208.83 271.48,-200.31 261.24,-203.03 265.17,-208.83"/>
</g>
<!-- Y -->
<g id="node2" class="node">
<title>Y</title>
<polygon fill="lightgray" stroke="black" points="223.5,-348.68 200.5,-348.68 200.5,-330.68 223.5,-330.68 223.5,-348.68"/>
<text text-anchor="middle" x="212" y="-337.48" font-family="Times New Roman,serif" font-size="9.00">Y</text>
</g>
<!-- uY -->
<g id="node8" class="node">
<title>uY</title>
<ellipse fill="lightblue" stroke="black" cx="212" cy="-269.93" rx="19.18" ry="19.18"/>
<text text-anchor="middle" x="212" y="-267.73" font-family="Times New Roman,serif" font-size="9.00">uY</text>
</g>
<!-- Y&#45;&gt;uY -->
<g id="edge3" class="edge">
<title>Y&#45;&gt;uY</title>
<path fill="none" stroke="green" stroke-width="0.25" d="M212,-330.64C212,-322.86 212,-310.59 212,-299.2"/>
<polygon fill="green" stroke="green" stroke-width="0.25" points="215.5,-299.14 212,-289.14 208.5,-299.14 215.5,-299.14"/>
</g>
<!-- Z -->
<g id="node3" class="node">
<title>Z</title>
<polygon fill="lightgray" stroke="black" points="289.5,-107.93 266.5,-107.93 266.5,-89.93 289.5,-89.93 289.5,-107.93"/>
<text text-anchor="middle" x="278" y="-96.73" font-family="Times New Roman,serif" font-size="9.00">Z</text>
</g>
<!-- Z&#45;&gt;uZ -->
<g id="edge6" class="edge">
<title>Z&#45;&gt;uZ</title>
<path fill="none" stroke="green" stroke-width="0.17" d="M272.42,-89.9C264.88,-79.01 251.09,-59.14 240.16,-43.38"/>
<polygon fill="green" stroke="green" stroke-width="0.17" points="243.01,-41.35 234.43,-35.13 237.25,-45.34 243.01,-41.35"/>
</g>
<!-- vX -->
<g id="node4" class="node">
<title>vX</title>
<polygon fill="lightgray" stroke="black" points="28,-278.93 0,-278.93 0,-260.93 28,-260.93 28,-278.93"/>
<text text-anchor="middle" x="14" y="-267.73" font-family="Times New Roman,serif" font-size="9.00">vX</text>
</g>
<!-- vX&#45;&gt;uX -->
<g id="edge4" class="edge">
<title>vX&#45;&gt;uX</title>
<path fill="none" stroke="red" stroke-width="0.51" d="M18.51,-260.92C24.9,-249.56 36.91,-228.23 46.53,-211.13"/>
<polygon fill="red" stroke="red" stroke-width="0.51" points="49.73,-212.59 51.58,-202.16 43.63,-209.16 49.73,-212.59"/>
</g>
<!-- vY -->
<g id="node5" class="node">
<title>vY</title>
<polygon fill="lightgray" stroke="black" points="122.5,-348.68 95.5,-348.68 95.5,-330.68 122.5,-330.68 122.5,-348.68"/>
<text text-anchor="middle" x="109" y="-337.48" font-family="Times New Roman,serif" font-size="9.00">vY</text>
</g>
<!-- vY&#45;&gt;uX -->
<g id="edge2" class="edge">
<title>vY&#45;&gt;uX</title>
<path fill="none" stroke="green" stroke-width="0.18" stroke-dasharray="1,5" d="M100.43,-330.46C92.42,-322.23 80.84,-308.77 75,-294.68 64.32,-268.9 61.27,-237.02 60.62,-214.37"/>
<polygon fill="green" stroke="green" stroke-width="0.18" points="64.12,-214.31 60.47,-204.36 57.12,-214.41 64.12,-214.31"/>
</g>
<!-- vY&#45;&gt;uY -->
<g id="edge5" class="edge">
<title>vY&#45;&gt;uY</title>
<path fill="none" stroke="red" stroke-width="0.62" d="M122.75,-331.32C137.9,-323.02 162.8,-308.83 183,-294.68 185.19,-293.14 187.43,-291.48 189.64,-289.79"/>
<polygon fill="red" stroke="red" stroke-width="0.62" points="192.25,-292.18 197.88,-283.2 187.88,-286.71 192.25,-292.18"/>
</g>
<!-- 1279 -->
<g id="node14" class="node">
<title>1279</title>
<ellipse fill="white" stroke="black" cx="109" cy="-269.93" rx="25" ry="25"/>
<text text-anchor="middle" x="109" y="-267.73" font-family="Times New Roman,serif" font-size="9.00">1279</text>
</g>
<!-- vY&#45;&gt;1279 -->
<g id="edge11" class="edge">
<title>vY&#45;&gt;1279</title>
<path fill="none" stroke="red" stroke-width="0.72" d="M109,-330.64C109,-324.2 109,-314.71 109,-305.17"/>
<polygon fill="red" stroke="red" stroke-width="0.72" points="112.5,-304.95 109,-294.95 105.5,-304.95 112.5,-304.95"/>
</g>
<!-- vZ -->
<g id="node6" class="node">
<title>vZ</title>
<polygon fill="lightgray" stroke="black" points="334.5,-107.93 307.5,-107.93 307.5,-89.93 334.5,-89.93 334.5,-107.93"/>
<text text-anchor="middle" x="321" y="-96.73" font-family="Times New Roman,serif" font-size="9.00">vZ</text>
</g>
<!-- vZ&#45;&gt;uZ -->
<g id="edge7" class="edge">
<title>vZ&#45;&gt;uZ</title>
<path fill="none" stroke="red" stroke-width="0.58" d="M314.04,-89.63C309.89,-84.89 304.39,-78.95 299,-74.18 283.02,-60.05 263.41,-46.01 248.26,-35.78"/>
<polygon fill="red" stroke="red" stroke-width="0.58" points="250.17,-32.85 239.91,-30.22 246.29,-38.67 250.17,-32.85"/>
</g>
<!-- 1477&#45;&gt;uZ -->
<g id="edge14" class="edge">
<title>1477&#45;&gt;uZ</title>
<path fill="none" stroke="green" stroke-width="0.32" stroke-dasharray="1,5" d="M209.58,-164.1C202.14,-152.92 193.85,-138.22 190,-123.68 184.37,-102.41 183.91,-95.32 190,-74.18 193.26,-62.88 199.66,-51.65 206.03,-42.38"/>
<polygon fill="green" stroke="green" stroke-width="0.32" points="208.97,-44.3 212.03,-34.15 203.31,-40.17 208.97,-44.3"/>
</g>
<!-- 1579 -->
<g id="node12" class="node">
<title>1579</title>
<ellipse fill="white" stroke="black" cx="224" cy="-98.93" rx="25" ry="25"/>
<text text-anchor="middle" x="224" y="-96.73" font-family="Times New Roman,serif" font-size="9.00">1579</text>
</g>
<!-- 1477&#45;&gt;1579 -->
<g id="edge15" class="edge">
<title>1477&#45;&gt;1579</title>
<path fill="none" stroke="green" stroke-width="0.49" d="M224,-159.28C224,-151.33 224,-142.35 224,-133.82"/>
<polygon fill="green" stroke="green" stroke-width="0.49" points="227.5,-133.74 224,-123.74 220.5,-133.74 227.5,-133.74"/>
</g>
<!-- 1579&#45;&gt;uZ -->
<g id="edge16" class="edge">
<title>1579&#45;&gt;uZ</title>
<path fill="none" stroke="green" stroke-width="0.41" d="M224,-74.15C224,-66.11 224,-57.04 224,-48.66"/>
<polygon fill="green" stroke="green" stroke-width="0.41" points="227.5,-48.54 224,-38.54 220.5,-48.54 227.5,-48.54"/>
</g>
<!-- 1279&#45;&gt;uX -->
<g id="edge12" class="edge">
<title>1279&#45;&gt;uX</title>
<path fill="none" stroke="green" stroke-width="0.11" d="M96.89,-247.86C90.44,-236.65 82.47,-222.78 75.68,-210.97"/>
<polygon fill="green" stroke="green" stroke-width="0.11" points="78.56,-208.95 70.54,-202.02 72.49,-212.43 78.56,-208.95"/>
</g>
</g>
</svg>
